<mxfile host="app.diagrams.net" modified="2021-01-22T06:46:10.242Z" agent="5.0 (Macintosh; Intel Mac OS X 11_0_1) AppleWebKit/537.36 (KHTML, like Gecko) Chrome/87.0.4280.141 Safari/537.36" etag="OTVwU5Zi4fQU_ZujFHFw" version="14.1.9" type="github">
  <diagram id="cEb1SMYlaxDCiAcMY64M" name="Page-1">
    <mxGraphModel dx="880" dy="621" grid="1" gridSize="10" guides="1" tooltips="1" connect="1" arrows="1" fold="1" page="1" pageScale="1" pageWidth="827" pageHeight="1169" math="0" shadow="0">
      <root>
        <mxCell id="0" />
        <mxCell id="1" parent="0" />
        <mxCell id="L9LOo2z9HG8LsJN7OMgC-17" value="" style="edgeStyle=orthogonalEdgeStyle;rounded=0;orthogonalLoop=1;jettySize=auto;html=1;" edge="1" parent="1" source="L9LOo2z9HG8LsJN7OMgC-13" target="L9LOo2z9HG8LsJN7OMgC-16">
          <mxGeometry relative="1" as="geometry" />
        </mxCell>
        <mxCell id="L9LOo2z9HG8LsJN7OMgC-13" value="&lt;pre style=&quot;background-color: #2b2b2b ; color: #a9b7c6 ; font-family: &amp;#34;jetbrains mono&amp;#34; , monospace ; font-size: 9.8pt&quot;&gt;&lt;span style=&quot;color: #9876aa ; font-style: italic&quot;&gt;Ready&lt;/span&gt;&lt;/pre&gt;" style="rounded=0;whiteSpace=wrap;html=1;" vertex="1" parent="1">
          <mxGeometry x="150" y="110" width="120" height="60" as="geometry" />
        </mxCell>
        <mxCell id="L9LOo2z9HG8LsJN7OMgC-19" value="" style="edgeStyle=orthogonalEdgeStyle;rounded=0;orthogonalLoop=1;jettySize=auto;html=1;" edge="1" parent="1" source="L9LOo2z9HG8LsJN7OMgC-16" target="L9LOo2z9HG8LsJN7OMgC-18">
          <mxGeometry relative="1" as="geometry" />
        </mxCell>
        <mxCell id="L9LOo2z9HG8LsJN7OMgC-30" style="edgeStyle=orthogonalEdgeStyle;rounded=0;orthogonalLoop=1;jettySize=auto;html=1;exitX=0;exitY=0.5;exitDx=0;exitDy=0;entryX=0;entryY=0.75;entryDx=0;entryDy=0;" edge="1" parent="1" source="L9LOo2z9HG8LsJN7OMgC-16" target="L9LOo2z9HG8LsJN7OMgC-13">
          <mxGeometry relative="1" as="geometry">
            <Array as="points">
              <mxPoint x="120" y="280" />
              <mxPoint x="120" y="155" />
            </Array>
          </mxGeometry>
        </mxCell>
        <mxCell id="L9LOo2z9HG8LsJN7OMgC-16" value="&lt;pre style=&quot;background-color: #2b2b2b ; color: #a9b7c6 ; font-family: &amp;#34;jetbrains mono&amp;#34; , monospace ; font-size: 9.8pt&quot;&gt;&lt;pre style=&quot;font-family: &amp;#34;jetbrains mono&amp;#34; , monospace ; font-size: 9.8pt&quot;&gt;&lt;span style=&quot;color: #9876aa ; font-style: italic&quot;&gt;WaitUp&lt;/span&gt;&lt;/pre&gt;&lt;/pre&gt;" style="rounded=0;whiteSpace=wrap;html=1;" vertex="1" parent="1">
          <mxGeometry x="150" y="250" width="120" height="60" as="geometry" />
        </mxCell>
        <mxCell id="L9LOo2z9HG8LsJN7OMgC-23" value="" style="edgeStyle=orthogonalEdgeStyle;rounded=0;orthogonalLoop=1;jettySize=auto;html=1;" edge="1" parent="1" source="L9LOo2z9HG8LsJN7OMgC-18" target="L9LOo2z9HG8LsJN7OMgC-22">
          <mxGeometry relative="1" as="geometry" />
        </mxCell>
        <mxCell id="L9LOo2z9HG8LsJN7OMgC-31" style="edgeStyle=orthogonalEdgeStyle;rounded=0;orthogonalLoop=1;jettySize=auto;html=1;exitX=0;exitY=0.5;exitDx=0;exitDy=0;entryX=0;entryY=0.5;entryDx=0;entryDy=0;" edge="1" parent="1" source="L9LOo2z9HG8LsJN7OMgC-18" target="L9LOo2z9HG8LsJN7OMgC-13">
          <mxGeometry relative="1" as="geometry">
            <Array as="points">
              <mxPoint x="100" y="420" />
              <mxPoint x="100" y="140" />
            </Array>
          </mxGeometry>
        </mxCell>
        <mxCell id="L9LOo2z9HG8LsJN7OMgC-18" value="&lt;pre style=&quot;background-color: #2b2b2b ; color: #a9b7c6 ; font-family: &amp;quot;jetbrains mono&amp;quot; , monospace ; font-size: 9.8pt&quot;&gt;&lt;span style=&quot;color: #9876aa ; font-style: italic&quot;&gt;Weight&lt;/span&gt;&lt;/pre&gt;" style="rounded=0;whiteSpace=wrap;html=1;" vertex="1" parent="1">
          <mxGeometry x="150" y="390" width="120" height="60" as="geometry" />
        </mxCell>
        <mxCell id="L9LOo2z9HG8LsJN7OMgC-24" style="edgeStyle=orthogonalEdgeStyle;rounded=0;orthogonalLoop=1;jettySize=auto;html=1;exitX=0;exitY=0.5;exitDx=0;exitDy=0;entryX=0;entryY=0.25;entryDx=0;entryDy=0;" edge="1" parent="1" source="L9LOo2z9HG8LsJN7OMgC-22" target="L9LOo2z9HG8LsJN7OMgC-13">
          <mxGeometry relative="1" as="geometry">
            <Array as="points">
              <mxPoint x="70" y="560" />
              <mxPoint x="70" y="125" />
            </Array>
          </mxGeometry>
        </mxCell>
        <mxCell id="L9LOo2z9HG8LsJN7OMgC-22" value="&lt;pre style=&quot;background-color: #2b2b2b ; color: #a9b7c6 ; font-family: &amp;quot;jetbrains mono&amp;quot; , monospace ; font-size: 9.8pt&quot;&gt;&lt;span style=&quot;color: #9876aa ; font-style: italic&quot;&gt;WaitDown&lt;/span&gt;&lt;/pre&gt;" style="rounded=0;whiteSpace=wrap;html=1;" vertex="1" parent="1">
          <mxGeometry x="150" y="530" width="120" height="60" as="geometry" />
        </mxCell>
      </root>
    </mxGraphModel>
  </diagram>
</mxfile>
